{"title":"Young and Hungry S04E01 Hawaii 1080p Web-DL AAC2.0 DD5.1 H.264","uid":14778404,"size":875681403,"categoryP":"video","categoryS":"hd___tv_shows","magnet":"?xt=urn:btih:045f4e1faa174ad759fb04bb2e0ec873cb07b202&amp;dn=+Young+and+Hungry+S04E01+Hawaii+1080p+Web-DL+AAC2.0+DD5.1+H.264+&amp;tr=udp%3A%2F%2Ftracker.leechers-paradise.org%3A6969&amp;tr=udp%3A%2F%2Fzer0day.ch%3A1337&amp;tr=udp%3A%2F%2Fopen.demonii.com%3A1337&amp;tr=udp%3A%2F%2Ftracker.coppersurfer.tk%3A6969&amp;tr=udp%3A%2F%2Fexodus.desync.com%3A6969","seeders":10,"leechers":1,"uploader":"Anon_up","files":1,"time":1464969523,"description":"Young and Hungry S04E01 Hawaii 1080p Web-DL AAC2.0 DD5.1 H.264 DCMagic m4v\r\n\r\n[center][img]https://i.imgur.com/p94fYT2.png[/img]\r\n\r\nScreenShots\r\n[img]https://i.imgur.com/b3IUGoK.jpg[/img]\r\n\r\nInfo[quote]\r\n\r\nSubs\r\n\r\nCredits to DCMagic\r\n\r\nTorrent by RnC\r\n\r\nUse Torrent\r\nand a client that supports HTTPS Seeding\r\nSeed for long to keep it alive\r\n[/quote]\r\n\r\n\r\n\r\n[spoiler=&quot;MediaInfo&quot;]\r\nComplete name : Young.and.Hungry.S04E01.Young.and.Hawaii.iT1080p.DCMagic.m4v \r\nFormat : MPEG-4 \r\nCodec ID : M4V (M4V /mp42/isom) \r\nFile size : 835 MiB \r\nDuration : 20mn 56s \r\nOverall bit rate mode : Variable \r\nOverall bit rate : 5 573 Kbps \r\nCollection : Young &amp; Hungry \r\nSeason : 4 \r\nAlbum : Young &amp; Hungry, Season 4 \r\nAlbum/Sorted by : Young &amp; Hungry, Season 4 \r\nAlbum/Performer : Young &amp; Hungry \r\nPart : 1 \r\nPart/Position : 1 \r\nPart/Total : 1 \r\nTrack name : Young &amp; Hawaii \r\nTrack name/Position : 1 \r\nTrack name/Total : 1 \r\nPerformer : Young &amp; Hungry \r\nPerformer/Sorted by : Young &amp; Hungry \r\nGenre : Comedy \r\nContentType : TV Show \r\nDescription : Gabi is heartbroken over witnessing Josh with his therapist, but is stuck with him on their plane to \r\nEncoded date : UTC 2016-05-31 21:36:58 \r\nTagged date : UTC 2016-05-31 21:37:02 \r\nCover : Yes \r\nRating : None \r\nLongDescription : Gabi is heartbroken over witnessing Josh with his therapist, but is stuck with him on their plane to Australia. Commiserating with fellow traveler Adam, Gabi accepts his offer to pose as his new wife on his honeymoon to Hawaii, since his actual bride Amanda dumped him at the altar. Meanwhile, Yolanda, Elliot, and Alan end up at the same resort and the manager assumes they're a three-person couple. \r\nTVNetworkName : Freeform \r\nContentRating : us-tv|TV-14|500|Dialogue \r\nTitle/Sort : Young &amp; Hawaii \r\nAlbumTitleID : 887635469 \r\nPlayListID : 1113088503 \r\nGenreID : 4000 \r\nAppleStoreCountry : United States \r\nVendor : abc:vendor_id:FREEFORM_YOUNGANDHUNGRY_4001 \r\nFlavour : 18:1080p \r\n\r\nVideo \r\nID : 1 \r\nFormat : AVC \r\nFormat/Info : Advanced Video Codec \r\nFormat profile :    \r\nFormat settings, CABAC : Yes \r\nFormat settings, ReFrames : 4 frames \r\nCodec ID : avc1 \r\nCodec ID/Info : Advanced Video Coding \r\nDuration : 20mn 56s \r\nBit rate : 5 029 Kbps \r\nWidth : 1 920 pixels \r\nHeight : 1 080 pixels \r\nDisplay aspect ratio : 16:9 \r\nFrame rate mode : Constant \r\nFrame rate : 23.976 (24000/1001) fps \r\nColor space : YUV \r\nChroma subsampling : 4:2:0 \r\nBit depth : 8 bits \r\nScan type : Progressive \r\nBits/(Pixel*Frame) : 0.101 \r\nStream size : 753 MiB (90%) \r\nTitle : Core Media Video \r\nLanguage : English \r\nEncoded date : UTC 2016-05-31 21:36:58 \r\nTagged date : UTC 2016-05-31 21:37:02 \r\nColor range : Limited \r\nColor primaries : BT.709 \r\nTransfer characteristics : BT.709 \r\nMatrix coefficients : BT.709 \r\n\r\nAudio #1 \r\nID : 2 \r\nFormat : AAC \r\nFormat/Info : Advanced Audio Codec \r\nFormat profile : LC \r\nCodec ID : 40 \r\nDuration : 20mn 56s \r\nSource duration : 20mn 56s \r\nBit rate mode : Variable \r\nBit rate : 160 Kbps \r\nMaximum bit rate : 261 Kbps \r\nChannel(s) : 2 channels \r\nChannel positions : Front: L R \r\nSampling rate : 48.0 KHz \r\nFrame rate : 46.875 fps (1024 spf) \r\nCompression mode : Lossy \r\nStream size : 23.1 MiB (3%) \r\nSource stream size : 23.1 MiB (3%) \r\nTitle : Core Media Audio \r\nLanguage : English \r\nDefault : Yes \r\nAlternate group : 1 \r\nEncoded date : UTC 2016-05-31 21:36:58 \r\nTagged date : UTC 2016-05-31 21:37:02 \r\nFallback From : 4 \r\n\r\nAudio #2 \r\nID : 4 \r\nFormat : AC-3 \r\nFormat/Info : Audio Coding 3 \r\nMode extension : CM (complete main) \r\nFormat settings, Endianness : Big \r\nCodec ID : ac-3 \r\nDuration : 20mn 56s \r\nBit rate mode : Constant \r\nBit rate : 384 Kbps \r\nChannel(s) : 6 channels \r\nChannel positions : Front: L C R, Side: L R, LFE \r\nSampling rate : 48.0 KHz \r\nFrame rate : 31.250 fps (1536 spf) \r\nBit depth : 16 bits \r\nCompression mode : Lossy \r\nStream size : 57.5 MiB (7%) \r\nTitle : Core Media Audio \r\nLanguage : English \r\nDefault : Inherited From: 2 \r\nAlternate group : 1 \r\nEncoded date : UTC 2016-05-31 21:36:58 \r\nTagged date : UTC 2016-05-31 21:37:02 \r\nFallback To : 2 \r\n\r\nText \r\nID : 3-CC1 \r\nFormat : EIA-608 \r\nMuxing mode : Final Cut \r\nCodec ID : c608 \r\nDuration : 20mn 50s \r\nBit rate mode : Constant \r\nStream size : 0.00 Byte (0%) \r\nTitle : Core Media Closed Caption \r\nLanguage : English \r\nForced : No \r\nEncoded date : UTC 2016-05-31 21:36:58 \r\nTagged date : UTC 2016-05-31 21:37:02 \r\n\r\n\r\n\r\n[/spoiler]\r\n\r\nIf you like my uploads\r\n[color=orange]Donate Bitcoin :[/color] [color=green]1PWLan3jUdKdofaXUuRHMEM6m17E9v2fP6[/color]\r\n\r\n[/center]","torrent":{"xt":"urn:btih:045f4e1faa174ad759fb04bb2e0ec873cb07b202","amp;dn":"+Young+and+Hungry+S04E01+Hawaii+1080p+Web-DL+AAC2.0+DD5.1+H.264+","amp;tr":["udp%3A%2F%2Ftracker.leechers-paradise.org%3A6969","udp%3A%2F%2Fzer0day.ch%3A1337","udp%3A%2F%2Fopen.demonii.com%3A1337","udp%3A%2F%2Ftracker.coppersurfer.tk%3A6969","udp%3A%2F%2Fexodus.desync.com%3A6969"],"infoHash":"045f4e1faa174ad759fb04bb2e0ec873cb07b202","infoHashBuffer":{"type":"Buffer","data":[4,95,78,31,170,23,74,215,89,251,4,187,46,14,200,115,203,7,178,2]},"announce":[],"urlList":[]}}